<mxfile host="app.diagrams.net" modified="2023-06-26T05:10:18.939Z" agent="Mozilla/5.0 (Windows NT 10.0; Win64; x64) AppleWebKit/537.36 (KHTML, like Gecko) Chrome/114.0.0.0 Safari/537.36 Edg/114.0.1823.58" etag="Q0e3hAOp30EoEWBGUa4L" version="21.5.0" type="github">
  <diagram name="第 1 页" id="il3vyu_xIt6D0rI315Fc">
    <mxGraphModel dx="552" dy="-293" grid="1" gridSize="10" guides="1" tooltips="1" connect="1" arrows="1" fold="1" page="1" pageScale="1" pageWidth="827" pageHeight="1169" math="0" shadow="0">
      <root>
        <mxCell id="0" />
        <mxCell id="1" parent="0" />
        <mxCell id="RTWIzIe-_CMWSQACLZg5-1" style="edgeStyle=orthogonalEdgeStyle;rounded=0;orthogonalLoop=1;jettySize=auto;html=1;exitX=0.5;exitY=1;exitDx=0;exitDy=0;entryX=0.5;entryY=0;entryDx=0;entryDy=0;" parent="1" source="RTWIzIe-_CMWSQACLZg5-2" target="RTWIzIe-_CMWSQACLZg5-3" edge="1">
          <mxGeometry relative="1" as="geometry" />
        </mxCell>
        <mxCell id="RTWIzIe-_CMWSQACLZg5-2" value="&lt;font face=&quot;Times New Roman&quot; style=&quot;font-size: 18px;&quot;&gt;workbench&lt;/font&gt;" style="rounded=1;whiteSpace=wrap;html=1;" parent="1" vertex="1">
          <mxGeometry x="1105" y="1600" width="120" height="60" as="geometry" />
        </mxCell>
        <mxCell id="RTWIzIe-_CMWSQACLZg5-3" value="&lt;font face=&quot;Times New Roman&quot; style=&quot;font-size: 18px;&quot;&gt;asub&lt;/font&gt;" style="rounded=1;whiteSpace=wrap;html=1;" parent="1" vertex="1">
          <mxGeometry x="1050" y="1888" width="230" height="130" as="geometry" />
        </mxCell>
        <mxCell id="RTWIzIe-_CMWSQACLZg5-4" value="&lt;font face=&quot;Times New Roman&quot; style=&quot;font-size: 18px;&quot;&gt;lsf&lt;/font&gt;" style="rounded=1;whiteSpace=wrap;html=1;" parent="1" vertex="1">
          <mxGeometry x="1547" y="2030" width="130" height="60" as="geometry" />
        </mxCell>
        <mxCell id="RTWIzIe-_CMWSQACLZg5-5" value="&lt;font face=&quot;Times New Roman&quot; style=&quot;font-size: 18px;&quot;&gt;awblm&lt;/font&gt;" style="rounded=1;whiteSpace=wrap;html=1;" parent="1" vertex="1">
          <mxGeometry x="1438" y="1755" width="100" height="50" as="geometry" />
        </mxCell>
        <mxCell id="RTWIzIe-_CMWSQACLZg5-6" style="edgeStyle=orthogonalEdgeStyle;rounded=0;orthogonalLoop=1;jettySize=auto;html=1;exitX=0.5;exitY=1;exitDx=0;exitDy=0;" parent="1" edge="1">
          <mxGeometry relative="1" as="geometry">
            <mxPoint x="1255" y="1895" as="sourcePoint" />
            <mxPoint x="1255" y="1895" as="targetPoint" />
          </mxGeometry>
        </mxCell>
        <mxCell id="RTWIzIe-_CMWSQACLZg5-7" value="守护进程，workbench管理者" style="text;strokeColor=none;align=center;fillColor=none;html=1;verticalAlign=middle;whiteSpace=wrap;rounded=0;" parent="1" vertex="1">
          <mxGeometry x="1322" y="1765" width="130" height="30" as="geometry" />
        </mxCell>
        <mxCell id="RTWIzIe-_CMWSQACLZg5-8" value="&lt;font face=&quot;Times New Roman&quot;&gt;register/unregister/getGsubInfo&lt;/font&gt;" style="text;strokeColor=none;align=center;fillColor=none;html=1;verticalAlign=middle;whiteSpace=wrap;rounded=0;" parent="1" vertex="1">
          <mxGeometry x="1246" y="1600" width="182" height="30" as="geometry" />
        </mxCell>
        <mxCell id="RTWIzIe-_CMWSQACLZg5-9" value="" style="edgeStyle=elbowEdgeStyle;elbow=horizontal;endArrow=classic;html=1;curved=0;rounded=0;endSize=8;startSize=8;exitX=1;exitY=0.5;exitDx=0;exitDy=0;strokeColor=#001DBC;strokeWidth=2;entryX=0.5;entryY=0;entryDx=0;entryDy=0;fillColor=#0050ef;" parent="1" source="RTWIzIe-_CMWSQACLZg5-2" target="RTWIzIe-_CMWSQACLZg5-5" edge="1">
          <mxGeometry width="50" height="50" relative="1" as="geometry">
            <mxPoint x="1660" y="1720" as="sourcePoint" />
            <mxPoint x="1598" y="1690" as="targetPoint" />
            <Array as="points">
              <mxPoint x="1488" y="1690" />
            </Array>
          </mxGeometry>
        </mxCell>
        <mxCell id="RTWIzIe-_CMWSQACLZg5-10" value="&lt;font face=&quot;Times New Roman&quot;&gt;register/unregister/call gjob/lsf&lt;br&gt;doe&lt;br&gt;&lt;/font&gt;" style="text;strokeColor=none;align=center;fillColor=none;html=1;verticalAlign=middle;whiteSpace=wrap;rounded=0;" parent="1" vertex="1">
          <mxGeometry x="1279.5" y="1926" width="215" height="30" as="geometry" />
        </mxCell>
        <mxCell id="RTWIzIe-_CMWSQACLZg5-11" value="" style="edgeStyle=elbowEdgeStyle;elbow=vertical;endArrow=classic;html=1;curved=0;rounded=0;endSize=8;startSize=8;exitX=1;exitY=0.5;exitDx=0;exitDy=0;entryX=0.5;entryY=1;entryDx=0;entryDy=0;" parent="1" source="RTWIzIe-_CMWSQACLZg5-3" target="RTWIzIe-_CMWSQACLZg5-5" edge="1">
          <mxGeometry width="50" height="50" relative="1" as="geometry">
            <mxPoint x="1368" y="2100" as="sourcePoint" />
            <mxPoint x="1418" y="2050" as="targetPoint" />
            <Array as="points">
              <mxPoint x="1388" y="1950" />
            </Array>
          </mxGeometry>
        </mxCell>
        <mxCell id="RTWIzIe-_CMWSQACLZg5-12" value="" style="edgeStyle=elbowEdgeStyle;elbow=horizontal;endArrow=classic;html=1;curved=0;rounded=0;endSize=8;startSize=8;exitX=0.5;exitY=1;exitDx=0;exitDy=0;strokeColor=#001DBC;strokeWidth=2;entryX=0;entryY=0.5;entryDx=0;entryDy=0;fillColor=#0050ef;" parent="1" source="RTWIzIe-_CMWSQACLZg5-3" target="RTWIzIe-_CMWSQACLZg5-4" edge="1">
          <mxGeometry width="50" height="50" relative="1" as="geometry">
            <mxPoint x="1205" y="2100" as="sourcePoint" />
            <mxPoint x="1468" y="2225" as="targetPoint" />
            <Array as="points">
              <mxPoint x="1165" y="2060" />
            </Array>
          </mxGeometry>
        </mxCell>
        <mxCell id="RTWIzIe-_CMWSQACLZg5-13" value="&lt;font face=&quot;Times New Roman&quot; style=&quot;font-size: 18px;&quot;&gt;ajob&lt;/font&gt;" style="rounded=1;whiteSpace=wrap;html=1;" parent="1" vertex="1">
          <mxGeometry x="1897" y="1765" width="180" height="60" as="geometry" />
        </mxCell>
        <mxCell id="RTWIzIe-_CMWSQACLZg5-14" value="&lt;span style=&quot;font-size: 18px;&quot;&gt;&lt;font face=&quot;Times New Roman&quot;&gt;sprocess&lt;/font&gt;&lt;/span&gt;" style="rounded=1;whiteSpace=wrap;html=1;" parent="1" vertex="1">
          <mxGeometry x="1777" y="1896" width="92" height="60" as="geometry" />
        </mxCell>
        <mxCell id="RTWIzIe-_CMWSQACLZg5-15" value="&lt;span style=&quot;font-size: 18px;&quot;&gt;&lt;font face=&quot;Times New Roman&quot;&gt;sdevice&lt;/font&gt;&lt;/span&gt;" style="rounded=1;whiteSpace=wrap;html=1;" parent="1" vertex="1">
          <mxGeometry x="1933" y="1896" width="107" height="60" as="geometry" />
        </mxCell>
        <mxCell id="RTWIzIe-_CMWSQACLZg5-16" value="&lt;span style=&quot;font-size: 18px;&quot;&gt;.......&lt;/span&gt;" style="rounded=1;whiteSpace=wrap;html=1;" parent="1" vertex="1">
          <mxGeometry x="2099" y="1896" width="92" height="60" as="geometry" />
        </mxCell>
        <mxCell id="RTWIzIe-_CMWSQACLZg5-17" style="edgeStyle=orthogonalEdgeStyle;rounded=0;orthogonalLoop=1;jettySize=auto;html=1;exitX=0.5;exitY=1;exitDx=0;exitDy=0;" parent="1" edge="1">
          <mxGeometry relative="1" as="geometry">
            <mxPoint x="2074" y="1755" as="sourcePoint" />
            <mxPoint x="2074" y="1755" as="targetPoint" />
          </mxGeometry>
        </mxCell>
        <mxCell id="RTWIzIe-_CMWSQACLZg5-18" value="call tools&lt;br&gt;monitor tools&lt;br&gt;Extract doe" style="text;strokeColor=none;align=center;fillColor=none;html=1;verticalAlign=middle;whiteSpace=wrap;rounded=0;" parent="1" vertex="1">
          <mxGeometry x="1872" y="1840" width="230" height="30" as="geometry" />
        </mxCell>
        <mxCell id="RTWIzIe-_CMWSQACLZg5-19" value="" style="edgeStyle=elbowEdgeStyle;elbow=vertical;endArrow=classic;html=1;curved=0;rounded=0;endSize=8;startSize=8;exitX=0.5;exitY=1;exitDx=0;exitDy=0;entryX=0.5;entryY=0;entryDx=0;entryDy=0;" parent="1" source="RTWIzIe-_CMWSQACLZg5-13" target="RTWIzIe-_CMWSQACLZg5-14" edge="1">
          <mxGeometry width="50" height="50" relative="1" as="geometry">
            <mxPoint x="1767" y="1880" as="sourcePoint" />
            <mxPoint x="1817" y="1830" as="targetPoint" />
          </mxGeometry>
        </mxCell>
        <mxCell id="RTWIzIe-_CMWSQACLZg5-20" value="" style="edgeStyle=elbowEdgeStyle;elbow=vertical;endArrow=classic;html=1;curved=0;rounded=0;endSize=8;startSize=8;entryX=0.5;entryY=0;entryDx=0;entryDy=0;" parent="1" target="RTWIzIe-_CMWSQACLZg5-15" edge="1">
          <mxGeometry width="50" height="50" relative="1" as="geometry">
            <mxPoint x="1987" y="1830" as="sourcePoint" />
            <mxPoint x="1942" y="1910" as="targetPoint" />
          </mxGeometry>
        </mxCell>
        <mxCell id="RTWIzIe-_CMWSQACLZg5-21" value="" style="edgeStyle=elbowEdgeStyle;elbow=vertical;endArrow=classic;html=1;curved=0;rounded=0;endSize=8;startSize=8;entryX=0.5;entryY=0;entryDx=0;entryDy=0;exitX=0.5;exitY=1;exitDx=0;exitDy=0;" parent="1" source="RTWIzIe-_CMWSQACLZg5-13" target="RTWIzIe-_CMWSQACLZg5-16" edge="1">
          <mxGeometry width="50" height="50" relative="1" as="geometry">
            <mxPoint x="1997" y="1840" as="sourcePoint" />
            <mxPoint x="1997" y="1905" as="targetPoint" />
            <Array as="points">
              <mxPoint x="2067" y="1860" />
            </Array>
          </mxGeometry>
        </mxCell>
        <mxCell id="RTWIzIe-_CMWSQACLZg5-22" value="" style="edgeStyle=elbowEdgeStyle;elbow=horizontal;endArrow=classic;html=1;curved=0;rounded=0;endSize=8;startSize=8;exitX=1;exitY=0.5;exitDx=0;exitDy=0;strokeColor=#001DBC;strokeWidth=2;entryX=0;entryY=0.5;entryDx=0;entryDy=0;fillColor=#0050ef;" parent="1" source="RTWIzIe-_CMWSQACLZg5-4" target="RTWIzIe-_CMWSQACLZg5-13" edge="1">
          <mxGeometry width="50" height="50" relative="1" as="geometry">
            <mxPoint x="1775" y="2048" as="sourcePoint" />
            <mxPoint x="2158" y="2090" as="targetPoint" />
            <Array as="points">
              <mxPoint x="1757" y="1930" />
            </Array>
          </mxGeometry>
        </mxCell>
        <mxCell id="RTWIzIe-_CMWSQACLZg5-23" value="" style="edgeStyle=orthogonalEdgeStyle;endArrow=classic;html=1;rounded=0;endSize=8;startSize=8;exitX=0.5;exitY=0;exitDx=0;exitDy=0;entryX=1;entryY=0.5;entryDx=0;entryDy=0;curved=1;" parent="1" source="RTWIzIe-_CMWSQACLZg5-13" edge="1">
          <mxGeometry width="50" height="50" relative="1" as="geometry">
            <mxPoint x="1777" y="1700" as="sourcePoint" />
            <mxPoint x="1537" y="1780" as="targetPoint" />
          </mxGeometry>
        </mxCell>
        <mxCell id="RTWIzIe-_CMWSQACLZg5-24" value="call gjob" style="text;strokeColor=none;align=center;fillColor=none;html=1;verticalAlign=middle;whiteSpace=wrap;rounded=0;" parent="1" vertex="1">
          <mxGeometry x="1656" y="2039" width="130" height="30" as="geometry" />
        </mxCell>
        <mxCell id="RTWIzIe-_CMWSQACLZg5-25" value="" style="edgeStyle=elbowEdgeStyle;elbow=horizontal;endArrow=classic;html=1;curved=0;rounded=0;endSize=8;startSize=8;exitX=1;exitY=0.5;exitDx=0;exitDy=0;strokeColor=#001DBC;strokeWidth=2;entryX=0;entryY=0.5;entryDx=0;entryDy=0;fillColor=#0050ef;" parent="1" edge="1">
          <mxGeometry width="50" height="50" relative="1" as="geometry">
            <mxPoint x="1677" y="2060" as="sourcePoint" />
            <mxPoint x="1897" y="1795" as="targetPoint" />
            <Array as="points">
              <mxPoint x="1757" y="1930" />
            </Array>
          </mxGeometry>
        </mxCell>
        <mxCell id="RTWIzIe-_CMWSQACLZg5-26" value="job status" style="text;strokeColor=none;align=center;fillColor=none;html=1;verticalAlign=middle;whiteSpace=wrap;rounded=0;" parent="1" vertex="1">
          <mxGeometry x="1611" y="1750" width="130" height="30" as="geometry" />
        </mxCell>
        <mxCell id="RTWIzIe-_CMWSQACLZg5-27" value="&lt;font face=&quot;Times New Roman&quot;&gt;run project&lt;br&gt;run job&lt;br&gt;abort job&lt;br&gt;&lt;/font&gt;" style="text;strokeColor=none;align=center;fillColor=none;html=1;verticalAlign=middle;whiteSpace=wrap;rounded=0;" parent="1" vertex="1">
          <mxGeometry x="1074" y="1735" width="182" height="30" as="geometry" />
        </mxCell>
      </root>
    </mxGraphModel>
  </diagram>
</mxfile>
